<?xml version="1.0" encoding="UTF-8"?>
<svg xmlns="http://www.w3.org/2000/svg" version="1.1" xmlns:inkscape="http://www.inkscape.org/namespaces/inkscape" xmlns:sodipodi="http://sodipodi.sourceforge.net/DTD/sodipodi-0.dtd" xmlns:svg="http://www.w3.org/2000/svg" viewBox="0 0 1758.8 652">
  <!-- Generator: Adobe Illustrator 29.0.0, SVG Export Plug-In . SVG Version: 2.1.0 Build 186)  -->
  <defs>
    <style>
      .st0 {
        fill: #fff;
      }

      .st1 {
        display: none;
        fill: none;
        stroke: #999;
        stroke-linecap: round;
        stroke-linejoin: round;
        stroke-width: 2.8px;
      }
    </style>
  </defs>
  <g id="svg1" inkscape:export-ydpi="300">
    <path id="path19" class="st0" d="M1341.9,231.1c-8.9.3-16.7,5.3-23.2,11-5.4,4.4-11.2,8.8-14,15.5-3.7,7.5-2.4,16-2.6,24,0,34.1,0,68.2,0,102.3.3,8.9,5.3,17.1,12.3,22.4,6.5,5.4,12.9,11.6,21.4,13.7,6.4,1.7,13.2.7,19.7,1,24.4,0,48.8,0,73.2,0,8.7-.4,16.4-5.3,22.7-11,5.4-4.4,11.2-8.9,14-15.5,3.6-7.4,2.4-15.8,2.6-23.7,0-34.2,0-68.4,0-102.5-.3-8.9-5.3-17.1-12.3-22.4-6.5-5.4-12.9-11.6-21.4-13.7-6.4-1.7-13.2-.7-19.7-1-24.2,0-48.5,0-72.7,0h0ZM1356.2,270.4c20.5,0,41-.1,61.5,0,2.4-.3,4.4,1.3,6.1,2.9.5,7.6,0,15.3.2,22.9,0,26.9,0,53.9,0,80.8.4,2.3-2.2,3.1-3.6,4.3-5,.6-10.2.2-15.2.3-18,0-36.1.1-54.1-.1-1.8-.2-3.2-1.9-4.6-3-.2-25.2,0-50.4,0-75.7,0-9.8-.1-19.6,0-29.4,1.8-1.7,4-3.3,6.6-3,1.1,0,2.1,0,3.2,0h0Z"/>
    <path id="path18" class="st0" d="M1208.9,238.5v182.4h44.2v-189.8h-44.2v7.4h0Z"/>
    <path id="path16" class="st0" d="M1043.4,231.1c-8.9.3-16.7,5.3-23.2,11-5.4,4.4-11.2,8.9-14,15.5-3.6,7.3-2.4,15.6-2.6,23.4.1,9.1-.2,18.2.2,27.3.8,8.5,5.7,16.1,12.4,21.1,6.4,5.3,12.8,11.4,21.1,13.5,6.4,1.7,13.2.7,19.8,1,17.4,0,34.8-.1,52.2,0,2.6-.3,4.9,1.4,6.3,3.4,0,10.3.2,20.6-.1,30.8-.6,1.5-2.5,2.2-3.8,3.2-13.8.3-27.6,0-41.4.1h-66.7v39.3c38.9,0,77.9,0,116.8,0,8.8-.4,16.6-5.4,22.9-11.2,5.4-4.4,11.2-8.9,13.9-15.5,3.6-7.5,2.3-16,2.5-24,0-9.9.2-19.7-.1-29.6-.6-8.6-5.6-16.4-12.4-21.4-6.4-5.4-12.9-11.5-21.3-13.5-6.4-1.6-13.1-.7-19.6-.9-18,0-35.9.1-53.9-.1-1.8-.2-3.2-1.9-4.5-3-.1-9.4-.1-18.7,0-28.1,1.8-1.7,4-3.3,6.6-3h105.3v-39.3h-116.4Z" sodipodi:nodetypes="cccccccccccccccccccccccccccccc"/>
    <path id="path15" class="st0" d="M910.4,238.5v182.4h44.2v-189.8h-44.2v7.4h0Z"/>
    <path id="path14" class="st0" d="M704,240.9c20.9,60,41.7,120,62.6,180h44.1c22-63.3,44-126.5,66-189.8h-44.8c-14.4,44.6-28.8,89.2-43.3,133.8-14.4-44.6-28.9-89.2-43.3-133.8h-44.8c1.1,3.3,2.3,6.5,3.4,9.8h0Z"/>
    <path id="path13" class="st0" d="M1517.2,238.5v182.4h44.2v-150.5c22,0,44.1,0,66.2,0,2.5-.3,4.6,1.2,6.3,2.8.5,7.3,0,14.7.2,22v125.5h44.2c0-50.9,0-101.7,0-152.6-.3-9-5.2-17.3-12.3-22.6-6.5-5.4-12.9-11.6-21.3-13.7-6.4-1.7-13.2-.7-19.8-1h-107.6v7.4h0Z"/>
    <path id="path3" class="st0" d="M1226.7,161.1c-4.5,0-9.5,0-13.1,3.3-3.8,3.2-7.9,7.1-7.7,12.4-.2,6.8-.5,13.7.4,20.5,2.6,5.7,7.7,11,14.2,11.9,6.6.4,13.3.6,19.9-.3,4.6-.6,9-2.9,11.9-6.5,4.5-4.9,3.7-12,3.9-18.2,0-5.6,0-11.9-4.1-16.4-4.3-5.6-11.8-6.4-18.4-6.6-2.3,0-4.7,0-7,0h0Z"/>
    <path id="text1" class="st0" d="M928.2,161.1c-4.5,0-9.5,0-13.1,3.3-3.8,3.2-7.9,7.1-7.7,12.4-.2,6.8-.5,13.7.4,20.5,2.6,5.7,7.7,11,14.2,11.9,6.6.4,13.3.6,19.9-.3,4.7-.6,9.1-2.9,12.1-6.7,4.4-5,3.6-12.2,3.7-18.4,0-5.6-.1-11.7-4.1-16.1-4.3-5.5-11.8-6.4-18.3-6.6-2.3,0-4.7,0-7,0h0Z"/>
    <sodipodi:namedview id="namedview1" bordercolor="#eeeeee" borderopacity="1" inkscape:current-layer="svg1" inkscape:cx="994.19214" inkscape:cy="404.81863" inkscape:deskcolor="#505050" inkscape:document-units="mm" inkscape:pagecheckerboard="0" inkscape:pageopacity="0" inkscape:showpageshadow="0" inkscape:window-height="1011" inkscape:window-maximized="1" inkscape:window-width="1920" inkscape:window-x="0" inkscape:window-y="0" inkscape:zoom="1.4142136" pagecolor="#505050"/>
    <path id="text9-6" class="st0" d="M1134.5,509.8h-18.8v-4.3c0-2.2-.1-3.7-.4-4.3-.1-.7-.9-1.6-2.2-2.7-1.3-1-2.4-1.6-3.1-1.8-.7-.3-2.5-.4-5.2-.4h-30.1c-2.7,0-4.4.1-5.2.4-.7.1-1.8.7-3.1,1.8-1.3,1-2.2,1.9-2.5,2.7-.1.6-.2,2-.2,4.3v62.4c0,2.2,0,3.7.2,4.5.3.6,1.1,1.4,2.5,2.5s2.4,1.7,3.1,2c.7.1,2.5.2,5.2.2h30.1c2.7,0,4.4,0,5.2-.2.7-.3,1.8-1,3.1-2s2.1-1.9,2.2-2.5c.3-.7.4-2.2.4-4.5v-4.3h18.8v9c0,4.5-1.8,8.2-5.4,11.2l-5.4,4.5c-3.6,3-7.2,4.5-10.8,4.5h-46.7c-3.6,0-7.2-1.5-10.8-4.5l-5.4-4.5c-3.6-3-5.4-6.7-5.4-11.2v-71.8c0-4.5,1.8-8.2,5.4-11.2l5.4-4.5c3.6-3,7.2-4.5,10.8-4.5h46.7c3.6,0,7.2,1.5,10.8,4.5l5.4,4.5c3.6,3,5.4,6.7,5.4,11.2v9ZM1244.8,572.6l13.5,11.2-5.4,4.5c-2.7,2.2-4.6,3.6-5.6,4-.9.3-2.7.4-5.4.4h-59.9c-3.6,0-7.2-1.5-10.8-4.5l-5.4-4.5c-3.6-3-5.4-6.7-5.4-11.2v-71.8c0-4.5,1.8-8.2,5.4-11.2l5.4-4.5c3.6-3,7.2-4.5,10.8-4.5h52.3c3,0,6.6,1.5,10.8,4.5l5.6,4.5c3.6,2.7,5.4,6.4,5.4,11.2v46h-76.7v21.1c0,2.2,0,3.7.2,4.5.3.6,1.1,1.4,2.5,2.5s2.4,1.7,3.1,2c.7.1,2.5.2,5.2.2h43.5c2.7,0,4.5-.1,5.4-.4,1-.4,2.9-1.8,5.6-4h0ZM1237.1,532.3v-26.7c0-2.2-.1-3.7-.4-4.3-.1-.7-.9-1.6-2.2-2.7-1.3-1-2.4-1.6-3.1-1.8-.7-.3-2.5-.4-5.2-.4h-35.9c-2.7,0-4.4.1-5.2.4-.7.1-1.8.7-3.1,1.8-1.3,1-2.2,1.9-2.5,2.7-.1.6-.2,2-.2,4.3v26.7h57.9ZM1354.1,480.7c3.6,0,7.2,1.5,10.8,4.5l5.4,4.5c3.6,3,5.4,6.7,5.4,11.2v92h-18.8v-87.3c0-2.2-.1-3.7-.4-4.3-.1-.7-.9-1.6-2.2-2.7-1.3-1-2.4-1.6-3.1-1.8-.7-.3-2.5-.4-5.2-.4h-45.1v96.5h-18.8v-112.2h72.2ZM1428.4,449.2v31.4h32.8v15.7h-32.8v71.6c0,2.2,0,3.7.2,4.5.3.6,1.1,1.4,2.5,2.5s2.4,1.7,3.1,2c.7.1,2.5.2,5.2.2h24.5v15.7h-32.8c-3.6,0-7.2-1.5-10.8-4.5l-5.4-4.5c-3.6-3-5.4-6.7-5.4-11.2v-76.3h-14.8v-15.7h14.8v-31.4h18.8ZM1571.9,572.6l13.5,11.2-5.4,4.5c-2.7,2.2-4.6,3.6-5.6,4-.9.3-2.7.4-5.4.4h-59.9c-3.6,0-7.2-1.5-10.8-4.5l-5.4-4.5c-3.6-3-5.4-6.7-5.4-11.2v-71.8c0-4.5,1.8-8.2,5.4-11.2l5.4-4.5c3.6-3,7.2-4.5,10.8-4.5h52.3c3,0,6.6,1.5,10.8,4.5l5.6,4.5c3.6,2.7,5.4,6.4,5.4,11.2v46h-76.7v21.1c0,2.2,0,3.7.2,4.5.3.6,1.1,1.4,2.5,2.5s2.4,1.7,3.1,2c.7.1,2.5.2,5.2.2h43.5c2.7,0,4.5-.1,5.4-.4l5.6-4h0ZM1564.2,532.3v-26.7c0-2.2-.1-3.7-.4-4.3-.1-.7-.9-1.6-2.2-2.7-1.3-1-2.4-1.6-3.1-1.8-.7-.3-2.5-.4-5.2-.4h-35.9c-2.7,0-4.4.1-5.2.4-.7.1-1.8.7-3.1,1.8-1.3,1-2.2,1.9-2.5,2.7-.1.6-.2,2-.2,4.3v26.7h57.9ZM1662.1,480.7c3.6,0,7.2,1.5,10.8,4.5l5.4,4.5-13.5,11.2-2.7-2.2c-1.3-1-2.4-1.6-3.1-1.8-.7-.3-2.5-.4-5.2-.4h-26v96.5h-18.8v-112.2h53.2Z" sodipodi:nodetypes="ccscscsscscsscscsscscsccsssssssssssssssscccscssssssssssccsccscscsscsccscscsscscsccssssccscscsccccscccccscscscccssssccccccccscssssssssssccsccscscssccccscscsscscsccssccccsccccs"/>
    <path id="path18-2" class="st0" d="M326,155.9l-147.3,85v170.1l147.3,85,147.3-85v-28.3l-24.5-14.2-122.7,70.9-98.2-56.7v-85l98.2,56.7,147.3-85v-28.3l-147.3-85ZM326,212.6l73.6,42.5-73.6,42.5-73.6-42.5,73.6-42.5Z"/>
    <path id="path30-7-9" class="st0" d="M326,42.5L80.5,184.3v283.5l245.5,141.7,240.6-138.9v-31.2h-44.2l-196.4,113.4-196.4-113.4v-226.8l196.4-113.4,196.4,113.4h44.2v-31.2L326,42.5Z"/>
    <path id="path4" class="st0" d="M522.4,238.6v182.4h44.2v-150.5c22,0,44.1,0,66.2,0,2.5-.3,4.6,1.2,6.4,2.9.5,7.8,0,15.6.2,23.5v124.1h44.2c0-50.9,0-101.7,0-152.6-.3-9-5.2-17.3-12.3-22.6-6.5-5.4-12.9-11.6-21.3-13.7-6.4-1.7-13.2-.7-19.8-1h-107.6v7.4Z"/>
    <path id="path3-6-2-5-9-8-3-8-70-7" class="st1" d="M708,351.2l-24.5-14.2v-28.3l24.5-14.2,24.5,14.2v28.3l-24.5,14.2Z" inkscape:flatsided="true" inkscape:label="Spacer" inkscape:randomized="0" inkscape:rounded="0" sodipodi:arg1="1.5707963" sodipodi:arg2="2.0943951" sodipodi:cx="0" sodipodi:cy="0" sodipodi:r1="10" sodipodi:r2="8.6602545" sodipodi:sides="6" sodipodi:type="star"/>
  </g>
</svg>